<svg xmlns="http://www.w3.org/2000/svg" width="240" height="240" viewBox="0 0 240 240">
<rect x="0.5" y="0.5" width="239" height="239" rx="10" fill="#f7f4ea" stroke="#c6cebf"/>
<svg x="64" y="30" width="112" height="112" viewBox="0 0 100 100" overflow="visible"><rect x="10" y="28" width="80" height="44" rx="3" fill="none" stroke="#9aa493" stroke-width="1"></rect><line x1="12" y1="50" x2="88" y2="50" fill="none" stroke="#9aa493" stroke-width="0.6"></line><clipPath id="seis"><rect x="11" y="29" width="78" height="42"></rect></clipPath><g clip-path="url(#seis)"><style data-emotion="css 1tx4s55 animation-p460la">.css-1tx4s55{-webkit-animation:animation-p460la 2.8s linear infinite;animation:animation-p460la 2.8s linear infinite;-webkit-animation-delay:calc(var(--motion-age, 0s) * -1);animation-delay:calc(var(--motion-age, 0s) * -1);}@-webkit-keyframes animation-p460la{to{-webkit-transform:translateX(-80px);-moz-transform:translateX(-80px);-ms-transform:translateX(-80px);transform:translateX(-80px);}}@keyframes animation-p460la{to{-webkit-transform:translateX(-80px);-moz-transform:translateX(-80px);-ms-transform:translateX(-80px);transform:translateX(-80px);}}</style><g class="css-1tx4s55"><path d="M0 50 L6 45 L12 54 L18 49 L24 50 L30 35 L37 66 L44 47 L51 53 L58 50 L65 42 L72 58 L80 50" fill="none" stroke="#252820" stroke-width="1.2"></path><path d="M80 50 L86 45 L92 54 L98 49 L104 50 L110 35 L117 66 L124 47 L131 53 L138 50 L145 42 L152 58 L160 50" fill="none" stroke="#252820" stroke-width="1.2"></path><path d="M160 50 L166 45 L172 54 L178 49 L184 50 L190 35 L197 66 L204 47 L211 53 L218 50 L225 42 L232 58 L240 50" fill="none" stroke="#252820" stroke-width="1.2"></path></g></g><line x1="90" y1="18" x2="73" y2="50" fill="none" stroke="#252820" stroke-width="1.4"></line><circle cx="90" cy="18" r="3" fill="none" stroke="#252820" stroke-width="1.4"></circle><circle cx="73" cy="50" r="2.4" fill="#677047" stroke="none"></circle></svg>
<text x="120" y="186" text-anchor="middle" font-family="'IBM Plex Mono', ui-monospace, SFMono-Regular, Menlo, monospace" font-size="16" font-weight="600" fill="#252820">faultline</text>
<text x="120" y="208" text-anchor="middle" font-family="'IBM Plex Mono', ui-monospace, SFMono-Regular, Menlo, monospace" font-size="11.5" fill="#656b5e">type-safe errors</text>
</svg>