<svg xmlns="http://www.w3.org/2000/svg" width="240" height="200" viewBox="0 0 240 200">
<rect x="0.5" y="0.5" width="239" height="199" rx="10" fill="#161a14" stroke="#2a3025"/>
<svg x="64" y="18" width="112" height="112" viewBox="0 0 100 100" overflow="visible"><line x1="50" y1="30" x2="50" y2="76" fill="none" stroke="#e4e8da" stroke-width="1.4"></line><line x1="40" y1="80" x2="60" y2="80" fill="none" stroke="#e4e8da" stroke-width="1.4"></line><line x1="45" y1="76" x2="55" y2="76" fill="none" stroke="#e4e8da" stroke-width="1.4"></line><style data-emotion="css cb7rlq animation-cmfwez">.css-cb7rlq{transform-box:fill-box;transform-origin:50% 0%;-webkit-animation:animation-cmfwez 3.6s ease-in-out infinite;animation:animation-cmfwez 3.6s ease-in-out infinite;-webkit-animation-delay:calc(var(--motion-age, 0s) * -1);animation-delay:calc(var(--motion-age, 0s) * -1);}@-webkit-keyframes animation-cmfwez{0%,100%{-webkit-transform:rotate(16deg);-moz-transform:rotate(16deg);-ms-transform:rotate(16deg);transform:rotate(16deg);}50%{-webkit-transform:rotate(-16deg);-moz-transform:rotate(-16deg);-ms-transform:rotate(-16deg);transform:rotate(-16deg);}}@keyframes animation-cmfwez{0%,100%{-webkit-transform:rotate(16deg);-moz-transform:rotate(16deg);-ms-transform:rotate(16deg);transform:rotate(16deg);}50%{-webkit-transform:rotate(-16deg);-moz-transform:rotate(-16deg);-ms-transform:rotate(-16deg);transform:rotate(-16deg);}}</style><g class="css-cb7rlq"><line x1="24" y1="30" x2="76" y2="30" fill="none" stroke="#e4e8da" stroke-width="1.4"></line><line x1="24" y1="30" x2="24" y2="46" fill="none" stroke="#5d6656" stroke-width="0.8"></line><line x1="76" y1="30" x2="76" y2="46" fill="none" stroke="#5d6656" stroke-width="0.8"></line><path d="M16 46 a8 5 0 0 0 16 0" fill="none" stroke="#e4e8da" stroke-width="1.4"></path><path d="M68 46 a8 5 0 0 0 16 0" fill="none" stroke="#e4e8da" stroke-width="1.4"></path><circle cx="50" cy="30" r="2.6" fill="#b4bf86" stroke="none"></circle></g></svg>
<text x="120" y="160" text-anchor="middle" font-family="'IBM Plex Mono', ui-monospace, SFMono-Regular, Menlo, monospace" font-size="16" font-weight="600" fill="#e4e8da">typediff</text>
<text x="120" y="180" text-anchor="middle" font-family="'IBM Plex Mono', ui-monospace, SFMono-Regular, Menlo, monospace" font-size="11.5" fill="#8d9684">semver type diffing</text>
</svg>