<svg xmlns="http://www.w3.org/2000/svg" width="240" height="200" viewBox="0 0 240 200">
<rect x="0.5" y="0.5" width="239" height="199" rx="10" fill="#f7f4ea" stroke="#c6cebf"/>
<svg x="64" y="18" width="112" height="112" viewBox="0 0 100 100" overflow="visible"><rect x="18" y="18" width="13" height="13" rx="2" fill="none" stroke="#252820" stroke-width="1.1"></rect><rect x="35" y="18" width="13" height="13" rx="2" fill="none" stroke="#252820" stroke-width="1.1"></rect><rect x="52" y="18" width="13" height="13" rx="2" fill="#252820" stroke="#252820" stroke-width="1.1"></rect><rect x="69" y="18" width="13" height="13" rx="2" fill="none" stroke="#252820" stroke-width="1.1"></rect><rect x="18" y="35" width="13" height="13" rx="2" fill="none" stroke="#252820" stroke-width="1.1"></rect><rect x="35" y="35" width="13" height="13" rx="2" fill="#252820" stroke="#252820" stroke-width="1.1"></rect><style data-emotion="css w117ig animation-y9pjyk">.css-w117ig{-webkit-animation:animation-y9pjyk 2.6s ease-in-out infinite;animation:animation-y9pjyk 2.6s ease-in-out infinite;-webkit-animation-delay:calc(var(--motion-age, 0s) * -1);animation-delay:calc(var(--motion-age, 0s) * -1);}@-webkit-keyframes animation-y9pjyk{0%,100%{opacity:0.15;}50%{opacity:1;}}@keyframes animation-y9pjyk{0%,100%{opacity:0.15;}50%{opacity:1;}}</style><rect x="52" y="35" width="13" height="13" rx="2" fill="#677047" class="css-w117ig"></rect><rect x="69" y="35" width="13" height="13" rx="2" fill="none" stroke="#252820" stroke-width="1.1"></rect><rect x="18" y="52" width="13" height="13" rx="2" fill="none" stroke="#252820" stroke-width="1.1"></rect><rect x="35" y="52" width="13" height="13" rx="2" fill="#252820" stroke="#252820" stroke-width="1.1"></rect><rect x="52" y="52" width="13" height="13" rx="2" fill="none" stroke="#252820" stroke-width="1.1"></rect><rect x="69" y="52" width="13" height="13" rx="2" fill="#252820" stroke="#252820" stroke-width="1.1"></rect><rect x="18" y="69" width="13" height="13" rx="2" fill="none" stroke="#252820" stroke-width="1.1"></rect><rect x="35" y="69" width="13" height="13" rx="2" fill="none" stroke="#252820" stroke-width="1.1"></rect><rect x="52" y="69" width="13" height="13" rx="2" fill="none" stroke="#252820" stroke-width="1.1"></rect><rect x="69" y="69" width="13" height="13" rx="2" fill="none" stroke="#252820" stroke-width="1.1"></rect></svg>
<text x="120" y="160" text-anchor="middle" font-family="'IBM Plex Mono', ui-monospace, SFMono-Regular, Menlo, monospace" font-size="16" font-weight="600" fill="#252820">wordle-tui</text>
<text x="120" y="180" text-anchor="middle" font-family="'IBM Plex Mono', ui-monospace, SFMono-Regular, Menlo, monospace" font-size="11.5" fill="#656b5e">wordle in the terminal</text>
</svg>